<svg width="1179" height="445" viewBox="0 0 1179 445" fill="none" xmlns="http://www.w3.org/2000/svg">
<path d="M11 429.275L11 15.5047L57.1709 15.5047C72.7444 15.5047 84.6016 19.4888 92.7494 27.4569C100.989 35.4216 105.107 46.6024 105.107 60.9958L105.107 171.127C105.107 179.366 103.613 186.383 100.626 192.174C97.6387 197.878 91.8898 202.179 83.3792 205.078L83.3792 205.62C92.2527 207.519 98.5441 211.64 102.257 217.978C105.966 224.223 107.823 232.008 107.823 241.333L107.823 385.277C107.823 414.61 91.7102 429.275 59.4818 429.275L11 429.275ZM50.5167 394.781L57.1709 394.781C64.5966 394.781 68.3059 390.346 68.3059 381.476L68.3059 241.879C68.3059 231.466 64.4134 226.259 56.6284 226.259L50.5167 226.259L50.5167 394.781ZM50.5167 192.312L56.6284 192.312C63.6913 192.312 67.221 186.563 67.221 175.065L67.221 62.7641C67.221 54.2535 63.871 49.9982 57.1709 49.9982L50.5167 49.9982L50.5167 192.312ZM121.131 429.275L121.131 15.5047L196.226 15.5047L196.226 51.6291L161.194 51.6291L161.194 197.878L191.883 197.878L191.883 232.914L161.194 232.914L161.194 393.154L196.772 393.154L196.772 429.275L121.131 429.275ZM208.46 429.275L208.46 15.5047L283.009 15.5047L283.009 51.6291L248.519 51.6291L248.519 206.843L278.529 206.843L278.529 242.964L248.519 242.964L248.519 429.275L208.46 429.275ZM342.052 434.298C326.482 434.298 314.396 429.412 305.794 419.633C297.287 409.766 293.031 396.275 293.031 379.166L293.031 65.4801C293.031 48.096 297.287 34.6994 305.794 25.2835C314.396 15.7759 326.482 11.0239 342.052 11.0239C357.622 11.0239 369.754 15.776 378.444 25.2835C387.138 34.6994 391.481 48.096 391.481 65.4801L391.481 379.166C391.481 396.638 387.138 410.217 378.444 419.905C369.754 429.5 357.622 434.298 342.052 434.298ZM332.548 383.646C332.548 393.334 335.715 398.177 342.052 398.177C348.66 398.177 351.965 393.334 351.965 383.646L351.965 60.9958C351.965 51.4002 348.66 46.6024 342.052 46.6024C335.715 46.6024 332.548 51.4002 332.548 60.9958L332.548 383.646ZM405.917 429.275L405.917 15.5047L454.938 15.5047C470.871 15.5047 483.002 19.672 491.33 27.9994C499.661 36.3269 503.825 48.096 503.825 63.3066L503.825 197.878C503.825 206.751 501.877 214.536 497.984 221.236C494.092 227.936 487.166 232.78 477.208 235.767L477.208 236.309C487.892 238.483 494.817 242.918 497.984 249.618C501.155 256.318 502.74 266.681 502.74 280.715L502.74 376.45C502.74 400.171 504.05 417.777 506.678 429.275L467.161 429.275C466.798 425.203 466.119 418.365 465.122 408.77C464.216 399.082 463.765 387.947 463.765 375.365L463.223 271.888C463.223 261.478 459.33 256.272 451.542 256.272L445.976 256.272L445.976 429.275L405.917 429.275ZM445.976 222.321L453.31 222.321C460.641 222.321 464.308 217.523 464.308 207.928L464.308 65.4801C464.308 55.5216 460.824 50.5407 453.853 50.5407L445.976 50.5407L445.976 222.321ZM516.605 429.275L516.605 15.5047L591.7 15.5047L591.7 51.6292L556.664 51.6292L556.664 197.878L587.353 197.878L587.353 232.914L556.664 232.914L556.664 393.154L592.242 393.154L592.242 429.275L516.605 429.275ZM656.77 429.275L656.77 15.5047L702.941 15.5047C718.511 15.5047 730.371 19.4888 738.519 27.457C746.758 35.4216 750.876 46.6024 750.876 60.9958L750.876 171.127C750.876 179.366 749.383 186.383 746.396 192.175C743.408 197.878 737.659 202.179 729.149 205.078L729.149 205.62C738.022 207.519 744.314 211.64 748.027 217.978C751.736 224.223 753.592 232.008 753.592 241.333L753.592 385.277C753.592 414.61 737.476 429.275 705.248 429.275L656.77 429.275ZM696.286 394.781L702.941 394.781C710.363 394.781 714.076 390.346 714.076 381.476L714.076 241.879C714.076 231.466 710.183 226.259 702.398 226.259L696.286 226.259L696.286 394.781ZM696.286 192.312L702.398 192.312C709.457 192.312 712.991 186.563 712.991 175.065L712.991 62.7641C712.991 54.2535 709.641 49.9982 702.941 49.9982L696.286 49.9982L696.286 192.312ZM766.901 429.275L766.901 15.5047L806.96 15.5047L806.96 391.389L838.195 391.389L838.195 429.275L766.901 429.275ZM897.157 434.298C881.587 434.298 869.5 429.412 860.898 419.633C852.391 409.767 848.136 396.275 848.136 379.166L848.136 65.4801C848.136 48.096 852.391 34.6995 860.898 25.2835C869.5 15.776 881.587 11.024 897.157 11.024C912.73 11.024 924.858 15.776 933.552 25.2835C942.242 34.6995 946.586 48.096 946.586 65.4801L946.586 379.166C946.586 396.638 942.242 410.217 933.552 419.905C924.858 429.5 912.73 434.298 897.157 434.298ZM887.652 383.646C887.652 393.334 890.819 398.177 897.157 398.177C903.765 398.177 907.069 393.334 907.069 383.646L907.069 60.9958C907.069 51.4002 903.765 46.6024 897.157 46.6024C890.819 46.6024 887.652 51.4002 887.652 60.9958L887.652 383.646ZM1008.96 434.298C993.387 434.298 981.301 429.412 972.699 419.633C964.188 409.767 959.937 396.275 959.937 379.166L959.937 65.4801C959.937 48.096 964.188 34.6995 972.699 25.2835C981.301 15.776 993.387 11.024 1008.96 11.024C1024.89 11.024 1037.02 15.776 1045.35 25.2835C1053.68 34.6995 1057.84 47.9163 1057.84 64.9341L1057.84 172.349L1018.87 172.349L1018.87 60.4533C1018.87 51.2206 1015.57 46.6024 1008.96 46.6024C1002.62 46.6024 999.45 51.2206 999.45 60.4533L999.45 384.192C999.45 394.239 1002.98 399.266 1010.04 399.266C1017.47 399.266 1021.18 394.239 1021.18 384.192L1021.18 266.865L1009.5 266.865L1009.5 231.286L1057.84 231.286L1057.84 378.623C1057.84 396.458 1053.77 410.217 1045.62 419.905C1037.47 429.5 1025.25 434.298 1008.96 434.298ZM1118.44 434.298C1103.23 434.298 1091.37 430.043 1082.86 421.536C1074.35 412.933 1070.09 400.668 1070.09 384.735L1070.09 270.803L1109.07 270.803L1109.07 384.735C1109.07 388.444 1109.88 391.706 1111.51 394.51C1113.23 397.318 1115.72 398.72 1118.98 398.72C1124.95 398.72 1127.94 394.647 1127.94 386.5L1127.94 266.319C1127.94 255.546 1125.72 247.582 1121.29 242.421C1116.85 237.169 1110.92 231.962 1103.5 226.805C1093.81 220.105 1085.89 212.592 1079.73 204.261C1073.67 195.933 1070.46 183.033 1070.09 165.561L1070.09 57.1949C1070.09 42.7099 1074.53 31.3953 1083.4 23.2475C1092.36 15.0996 1103.86 11.024 1117.89 11.024C1133.46 11.024 1145.59 15.3709 1154.29 24.0612C1163.07 32.7515 1167.46 44.7037 1167.46 59.9108L1167.46 163.388L1128.48 163.388L1128.48 59.9108C1128.48 51.0374 1125.32 46.6024 1118.98 46.6024C1113.09 46.6024 1110.15 50.3152 1110.15 57.7374L1110.15 163.93C1110.15 173.98 1112.19 181.494 1116.26 186.471C1120.34 191.452 1125.36 196.384 1131.34 201.273C1143.19 209.058 1152.25 217.389 1158.5 226.259C1164.83 235.133 1168 247.716 1168 264.011L1168 387.042C1168 401.89 1163.52 413.476 1154.56 421.807C1145.68 430.134 1133.64 434.298 1118.44 434.298Z" stroke="#E6E3DE" stroke-width="20.8584"/>
<path d="M11.0548 429.275L11.0548 15.4518L57.2152 15.4518C72.7887 15.4518 84.6528 19.4394 92.8077 27.4146C100.97 35.3827 105.052 46.5987 105.052 61.0626L105.052 171.194C105.052 179.348 103.566 186.299 100.6 192.048C97.6301 197.796 91.8812 202.157 83.353 205.123L83.353 205.673C92.2582 207.526 98.5601 211.605 102.262 217.918C105.972 224.223 107.828 232.005 107.828 241.266L107.828 385.326C107.828 414.627 91.6981 429.275 59.4415 429.275L11.0548 429.275ZM50.5363 394.795L57.2152 394.795C64.6338 394.795 68.3466 390.343 68.3466 381.437L68.3466 241.829C68.3466 231.451 64.4506 226.259 56.6656 226.259L50.5363 226.259L50.5363 394.795ZM50.5363 192.329L56.6657 192.329C63.7109 192.329 67.2335 186.58 67.2335 175.083L67.2335 62.7253C67.2335 54.197 63.8941 49.9311 57.2152 49.9311L50.5363 49.9311L50.5363 192.329Z" fill="#2E2E2E"/>
<path d="M121.185 429.274L121.185 15.4517L196.273 15.4517L196.273 51.5937L161.23 51.5937L161.23 197.881L191.82 197.881L191.82 232.924L161.23 232.924L161.23 393.118L196.822 393.118L196.822 429.274L121.185 429.274Z" fill="#2E2E2E"/>
<path d="M208.509 429.275L208.509 15.4518L283.033 15.4518L283.033 51.5938L248.554 51.5938L248.554 206.786L278.595 206.786L278.595 242.942L248.554 242.942L248.554 429.275L208.509 429.275Z" fill="#2E2E2E"/>
<path d="M342.006 434.277C326.429 434.277 314.378 429.363 305.85 419.539C297.318 409.714 293.056 396.272 293.056 379.212L293.056 65.5019C293.056 48.079 297.318 34.6403 305.85 25.1891C314.378 15.7309 326.429 11 342.006 11C357.569 11 369.711 15.7309 378.43 25.1891C387.145 34.6403 391.506 48.079 391.506 65.5019L391.506 379.212C391.506 396.649 387.145 410.183 378.43 419.821C369.711 429.459 357.569 434.277 342.006 434.277ZM332.537 383.665C332.537 393.302 335.694 398.121 342.006 398.121C348.674 398.121 352.01 393.302 352.01 383.665L352.01 61.0634C352.01 51.4185 348.674 46.5925 342.006 46.5925C335.694 46.5925 332.537 51.4185 332.537 61.0634L332.537 383.665Z" fill="#2E2E2E"/>
<path d="M405.966 429.275L405.966 15.4518L454.902 15.4518C470.853 15.4518 482.999 19.6226 491.34 27.9641C499.682 36.3057 503.853 48.0782 503.853 63.2748L503.853 197.881C503.853 206.786 501.901 214.578 498.005 221.257C494.116 227.929 487.163 232.748 477.151 235.714L477.151 236.263C487.906 238.49 494.856 242.942 498.005 249.621C501.161 256.293 502.74 266.671 502.74 280.761L502.74 376.435C502.74 400.164 504.039 417.777 506.643 429.275L467.147 429.275C466.77 425.199 466.118 418.34 465.188 408.702C464.265 399.058 463.808 387.93 463.808 375.322L463.258 271.87C463.258 261.482 459.362 256.286 451.577 256.286L446.011 256.286L446.011 429.275L405.966 429.275ZM446.011 222.356L453.24 222.356C460.658 222.356 464.371 217.537 464.371 207.899L464.371 65.5011C464.371 55.4969 460.849 50.4948 453.803 50.4948L446.011 50.4948L446.011 222.356Z" fill="#2E2E2E"/>
<path d="M516.653 429.275L516.653 15.4518L591.741 15.4518L591.741 51.5938L556.699 51.5938L556.699 197.881L587.289 197.881L587.289 232.924L556.698 232.924L556.698 393.118L592.291 393.118L592.291 429.275L516.653 429.275Z" fill="#2E2E2E"/>
<path d="M656.822 429.274L656.822 15.4517L702.983 15.4517C718.556 15.4517 730.42 19.4393 738.575 27.4145C746.737 35.3826 750.82 46.5986 750.82 61.0625L750.82 171.194C750.82 179.348 749.333 186.298 746.367 192.047C743.398 197.796 737.649 202.157 729.121 205.123L729.121 205.673C738.026 207.526 744.328 211.605 748.03 217.917C751.739 224.223 753.596 232.004 753.596 241.265L753.596 385.326C753.596 414.627 737.466 429.274 705.209 429.274L656.822 429.274ZM696.304 394.795L702.983 394.795C710.401 394.795 714.114 390.342 714.114 381.437L714.114 241.829C714.114 231.451 710.218 226.259 702.433 226.259L696.304 226.259L696.304 394.795ZM696.304 192.329L702.433 192.329C709.478 192.329 713.001 186.58 713.001 175.082L713.001 62.7252C713.001 54.1969 709.662 49.931 702.983 49.931L696.304 49.931L696.304 192.329Z" fill="#2E2E2E"/>
<path d="M766.954 429.275L766.954 15.4518L806.999 15.4518L806.999 391.456L838.139 391.456L838.139 429.275L766.954 429.275Z" fill="#2E2E2E"/>
<path d="M897.112 434.277C881.535 434.277 869.484 429.363 860.955 419.539C852.424 409.714 848.161 396.272 848.161 379.212L848.161 65.5019C848.161 48.079 852.424 34.6403 860.955 25.1891C869.484 15.7309 881.535 11 897.112 11C912.674 11 924.817 15.7309 933.535 25.1891C942.25 34.6403 946.611 48.079 946.611 65.5019L946.611 379.212C946.611 396.649 942.25 410.183 933.535 419.821C924.817 429.459 912.674 434.277 897.112 434.277ZM887.643 383.665C887.643 393.302 890.799 398.121 897.112 398.121C903.78 398.121 907.116 393.302 907.116 383.665L907.116 61.0634C907.116 51.4185 903.78 46.5925 897.112 46.5925C890.799 46.5925 887.643 51.4185 887.643 61.0634L887.643 383.665Z" fill="#2E2E2E"/>
<path d="M1008.91 434.277C993.331 434.277 981.28 429.363 972.751 419.539C964.22 409.714 959.957 396.272 959.957 379.212L959.957 65.5019C959.957 48.079 964.22 34.6403 972.751 25.1891C981.28 15.7309 993.331 11 1008.91 11C1024.85 11 1036.99 15.7309 1045.33 25.1891C1053.67 34.6403 1057.84 47.8959 1057.84 64.9524L1057.84 172.308L1018.91 172.308L1018.91 60.4998C1018.91 51.2283 1015.58 46.5925 1008.91 46.5925C1002.6 46.5925 999.439 51.2283 999.439 60.4998L999.439 384.228C999.439 394.232 1002.96 399.234 1010.01 399.234C1017.43 399.234 1021.14 394.232 1021.14 384.228L1021.14 266.855L1009.46 266.855L1009.46 231.262L1057.84 231.262L1057.84 378.662C1057.84 396.466 1053.76 410.183 1045.6 419.821C1037.44 429.459 1025.21 434.277 1008.91 434.277Z" fill="#2E2E2E"/>
<path d="M1118.48 434.277C1103.28 434.277 1091.41 430.012 1082.89 421.483C1074.35 412.955 1070.09 400.721 1070.09 384.778L1070.09 270.758L1109.02 270.758L1109.02 384.778C1109.02 388.491 1109.86 391.735 1111.52 394.514C1113.19 397.297 1115.7 398.685 1119.04 398.685C1124.97 398.685 1127.93 394.606 1127.93 386.44L1127.93 266.305C1127.93 255.551 1125.71 247.579 1121.25 242.394C1116.81 237.201 1110.88 232.005 1103.46 226.81C1093.82 220.141 1085.94 212.635 1079.81 204.293C1073.7 195.944 1070.46 183.055 1070.09 165.629L1070.09 57.1603C1070.09 42.7035 1074.54 31.3995 1083.44 23.2446C1092.34 15.0827 1103.84 11 1117.93 11C1133.5 11 1145.65 15.361 1154.35 24.0759C1163.07 32.7839 1167.43 44.7431 1167.43 59.9503L1167.43 163.402L1128.5 163.402L1128.5 59.9503C1128.5 51.0451 1125.34 46.5925 1119.04 46.5925C1113.1 46.5925 1110.14 50.3053 1110.14 57.724L1110.14 163.952C1110.14 173.967 1112.17 181.477 1116.25 186.483C1120.33 191.492 1125.33 196.402 1131.27 201.221C1143.14 209.01 1152.22 217.355 1158.52 226.26C1164.83 235.158 1167.98 247.762 1167.98 264.079L1167.98 387.004C1167.98 401.838 1163.53 413.424 1154.63 421.765C1145.74 430.107 1133.69 434.277 1118.48 434.277Z" fill="#2E2E2E"/>
</svg>
