<?xml version="1.0" encoding="UTF-8"?>
<svg id="Layer_3" xmlns="http://www.w3.org/2000/svg" viewBox="0 0 1048.69 1722.6">
  <defs>
    <style>
      .cls-1 {
        fill: #fff;
      }

      .cls-2 {
        fill: #222;
      }
    </style>
  </defs>
  <path class="cls-2" d="M161.19,903.14c-1.62-.57-3.22-1.6-4.85-1.63-5.69-.08-11.38.19-17.08.33-3.53.08-7.07.03-10.58.26-3.62.24-4.3.82-4.44,4.5-.2,5.38,0,10.78-.03,16.17,0,1.38-.22,2.75-.26,4.13-.08,2.43-.38,4.89-.08,7.28.63,4.98-2.5,9.21-7.48,9.61-.92.08-1.85.15-2.77.14-5.54-.04-11.07-.08-16.61-.16-4.83-.07-8.36-3.46-8.54-8.34-.12-3.54.04-7.09.02-10.64-.05-7.82-.24-15.64-.17-23.47.07-7.06.42-14.11.65-21.17,0-.31.07-.63.02-.92-1.25-6.91.32-13.8.16-20.7-.15-6.6-.27-13.21-.37-19.81-.03-2.3,2.49-5.99,4.75-6.82,1.29-.47,2.69-.99,4.02-.95,7.54.22,15.08.5,22.61.98,2.61.16,5.06,4.01,4.26,7.17-.86,3.39-.51,6.62-.28,9.97.23,3.48.23,7.02-.17,10.48-.2,1.71-1.53,3.29-2.55,5.31,3.28,3.53,2.39,7-1.34,10.11,2.64,3.18,5.51,4.92,9.63,4.81,5.22-.14,10.46.39,15.69.33,3.06-.03,6.14-.5,9.15-1.06.77-.14,1.33-1.37,1.99-2.11-.67-.56-1.28-1.52-2-1.61-3.2-.4-6.43-.72-9.66-.74-6.63-.04-8.69-1.84-8.83-8.37-.05-2.46.01-4.95.33-7.39.37-2.88,2-4.4,4.96-4.46,4.28-.09,8.57.18,12.86.2,2.14,0,4.28-.38,6.41-.29,4.33.19,5.57,1.34,5.73,5.53.14,3.69-.19,7.39-.07,11.09.07,2.1.37,4.27,1.07,6.23.32.89,1.9,1.9,2.84,1.84.88-.06,1.96-1.32,2.43-2.3.5-1.05.53-2.39.52-3.6-.07-10.79-.17-21.57-.31-32.36-.05-4.22-.65-5.03-4.81-4.9-5.07.16-10.01-1.76-15.18-.46-2.35.6-4.08-1.04-4.3-3.74-.29-3.63-.12-7.29-.2-10.94-.04-1.84-.28-3.68-.29-5.52-.02-2.6-.24-5.25.19-7.78.77-4.52,2.33-5.61,6.93-5.66,2.46-.03,4.92.03,7.38,0,4.92-.08,9.85-.32,14.77-.26,3.94.04,4.86.96,5.04,4.94.16,3.54-.05,7.09-.05,10.64,0,18.36.02,36.72.06,55.07.01,6.38,1.97,8.25,8.38,8.1,9.55-.22,19.1-.47,28.66-.71,7.16-.18,8.28-1.26,8.6-8.26.33-7.4-.78-8.77-8.16-8.92-8.14-.17-16.28-.07-24.42-.06-4.32,0-5.02-.3-5.41-4.43-.47-5.04-.55-10.13-.61-15.2-.09-6.6-.07-13.21.03-19.81.06-4.15.48-8.29.47-12.43,0-5.07-.36-10.13-.4-15.2-.02-3.53.25-7.07.39-10.6,0-.15.06-.31.06-.46-.18-8.44-.36-16.88-.55-25.32-.01-.46-.16-.93-.11-1.38,1.44-12.47-.33-24.92-.23-37.38,0-.93,0-1.85.07-2.78.13-1.75.99-2.83,2.83-3.08,9-1.19,17.92-2.13,27.1-1.4,8.71.69,17.55-.1,26.33-.23,3.39-.05,6.85-.46,10.17,0,5.57.76,11.05.48,16.58-.08,3.54-.36,4.13-.45,4.71-3.82.87-5,1.77-10.06,1.89-15.11.25-11.23.06-22.46-.04-33.69-.02-2.14-.41-4.27-.62-6.4-.09-.92-.35-1.87-.2-2.75,1.78-10.43.57-20.93.8-31.39.21-9.86.18-19.72,0-29.58-.1-5.13.11-10.25-.22-15.41-.64-9.78-.21-19.63-.37-29.45-.09-5.33.34-10.62-.09-16.01-.79-9.94-.3-19.98-.38-29.97-.05-6.44-.16-12.89-.23-19.33-.09-9.7-.22-19.39-.24-29.09,0-6.6.19-13.2.23-19.81.04-7.24.01-14.48-.02-21.72-.05-9.53-.11-19.06-.21-28.59-.11-9.71-.44-19.42-.37-29.13.07-10.01.66-20.02.73-30.03.06-8.32-.37-16.63-.47-24.95-.07-6.14.12-12.29.04-18.43-.14-10.46-.43-20.93-.62-31.39-.06-3.53.08-7.07,0-10.6-.23-10.14,1.46-20.22.41-30.41-.67-6.54-.1-13.21-.17-19.82-.02-1.68-.4-3.35-.46-5.03-.05-1.33.12-2.67.25-4,.17-1.81,1.02-3.83.49-5.39-2.2-6.52-.85-13.17-1.16-19.75-.22-4.74.28-9.52.33-14.28.09-8.89.19-17.79.08-26.68-.11-9.83-.48-19.65-.67-29.47-.04-2.14.23-4.27.31-6.41.08-2.44.09-4.88.15-7.32.09-3.38.3-6.76.28-10.13,0-2.42-.28-4.85-.46-7.27-.03-.46-.17-.91-.27-1.36-1.69-7.24,3.01-10.56,9.03-10.71,7.37-.18,14.76.43,22.13.38,6.6-.04,13.19-.62,19.79-.76,7.55-.16,15.1-.13,22.66-.11,5.71.01,11.42.19,17.13.2,13.55.03,27.1.03,40.66,0,5.69-.01,11.38-.13,17.07-.2.77,0,1.54-.03,2.32,0,5.67.22,11.34.55,17.02.65,3.84.06,7.69-.27,11.54-.3,3.69-.03,7.38.08,11.07.15,4.91.09,9.83.32,14.74.25,2.89-.04,5.78-.76,8.67-.77,8.14-.03,16.28.11,24.41.27,5.08.1,10.16.44,15.25.49,7.23.07,14.47-.22,21.7,0,9.57.29,19.05-.4,28.58-1.21,6.7-.57,13.5.21,20.25.2,8.92,0,17.85-.36,26.77-.26,7.24.08,14.47.69,21.71.87,7.53.19,15.06.18,22.59.21,10.92.04,21.84.07,32.76.03,4.62-.02,9.24-.19,13.86-.37,8.01-.31,15.99-.54,24,.57,3.6.5,7.35-.07,11.03-.09,6.14-.03,12.28.05,18.42-.02,8.32-.1,16.63-.38,24.95-.4,3.53,0,7.06.43,10.59.71,2.5.2,3.42,1.86,3.5,4.1.2,5.85.49,11.7.45,17.54-.05,6.9-.7,13.75.05,20.72.61,5.73-.53,11.63-.67,17.47-.08,3.47-.47,7.01,1.09,10.35.29.63.43,1.57.18,2.19-1.58,3.9-.81,7.79-.47,11.77.32,3.64-.1,7.35-.16,11.03-.06,3.5-.06,7-.14,10.49-.13,5.76,1.31,11.47-.09,17.31-.57,2.39.69,5.15.68,7.75-.02,4.91-.57,9.82-.5,14.72.08,6.12.66,12.23.83,18.35.14,5.06-.09,10.13-.03,15.19.05,4.13.32,8.27.43,12.4.06,2.61-.02,5.22-.01,7.83.03,10.09-.03,20.19.14,30.28.16,9.37.61,18.73.87,28.1.06,2.14-.12,4.3-.24,6.44-.04.76-.29,1.52-.29,2.29-.03,10.91-.16,21.82,0,32.73.16,11.47.65,22.93.86,34.39.12,6.39.07,12.8-.14,19.19-.12,3.5-1.1,6.99-1.03,10.48.17,8.61.77,17.22,1.11,25.83.51,12.58,1.11,25.16,1.35,37.75.18,9.18-.29,18.37-.23,27.56.06,9.04.5,18.09.64,27.13.05,2.91-.53,5.83-.47,8.73.18,7.69.55,15.37.84,23.06.02.62.08,1.23.09,1.85.32,20.19.57,40.39.97,60.58.2,10.01-.11,19.99.66,30.03.76,9.92-.69,19.99-.71,29.99-.02,9.83.57,19.65.85,29.48.06,2,0,4.01-.1,6-.15,2.9.29,3.58,3.17,3.78,2.62.18,5.25.06,7.87.22,22.17,1.31,44.35,2.26,66.58,1.88,4.03-.07,4.31.49,4.36,4.66.11,8.74.43,17.47.44,26.21,0,5.54-.57,11.08-.56,16.63,0,6.61.37,13.23.54,19.84.06,2.15.03,4.31-.02,6.46-.29,13.41-.58,26.82-.9,40.23-.18,7.55-.39,15.1-.7,22.65-.06,1.51-.28,3.18-1.01,4.45-.58,1.01-2.02,2.06-3.13,2.13-3.68.22-7.38-.06-11.08-.02-3.83.05-7.66.27-11.49.38-1.67.05-3.35.02-5.02.03-3.95.04-6,1.93-5.93,5.95.05,3.07.47,6.13.84,9.19.29,2.36,1.82,3.53,4.14,3.52,9.68-.06,19.36-.18,29.04-.26,1.84-.01,3.68.15,5.52.12,4.21-.07,6.14-1.68,6.18-5.74.13-13.09.15-26.19.08-39.28-.05-8.32-.35-16.63-.51-24.95-.02-.92.05-1.86.18-2.77.44-3.18,1.59-4.63,4.67-4.74,6.63-.24,13.26-.19,19.9-.22,1.84-.01,3.68.07,5.52.11,2.82.06,4.36,1.04,4.1,3.8-.57,6.28,1.53,12.56-.16,18.82-.26.97.08,2.13.27,3.18.91,5.01-.48,6.88-5.57,7.07-4.31.17-8.64.15-12.96.2-.92.01-1.86-.1-2.77,0-2.03.21-3.56,1.1-3.77,3.35-.3,3.2-.94,6.42-.73,9.59.46,6.91-.17,13.76-.45,20.64-.09,2.29.15,4.61.32,6.9.11,1.49.67,2.83,2.36,2.95,1.77.13,2.34-1.2,2.54-2.69.5-3.65,1.02-7.3,1.44-10.96.14-1.22-.02-2.47.04-3.7.31-6.33,1.46-7.39,7.81-7.51,5.54-.1,11.08-.5,16.62-.39,5,.1,6.15,1.47,6.37,6.49.12,2.77.21,5.56.09,8.33-.16,3.68-1.76,5.21-5.52,5.35-4.14.15-8.29.08-12.44.23-1.98.07-4.59.03-4.76,2.59-.18,2.69,2.41,2.83,4.4,2.89,4.91.16,9.82.18,14.73.24,2.75.04,5.51.07,8.26.06,1.54,0,3.1.05,4.61-.2,3.96-.66,4.55-1.84,3.32-5.68-.41-1.29-1.03-2.83-.67-3.99.96-3.12,2.08-6.12.66-9.37-.06-.13-.08-.37,0-.45,2.89-2.95,1.24-5.85-.08-8.75-.06-.14-.13-.32-.09-.45,1.21-4.65.1-9.26-.01-13.9-.1-3.94,1.04-4.67,4.97-5.22,1.83-.25,3.69-.37,5.54-.37,6.02,0,12.03.06,18.05.18,4.02.08,5.38,1.24,5.5,5.18.13,4.14-.11,8.29-.24,12.43-.25,8.32-.59,16.63-.79,24.95-.08,3.36.24,6.72.18,10.08-.14,8.13-1.06,16.31-.4,24.37.65,7.86.71,15.68.83,23.52.01.77.13,1.54.16,2.31.21,6.03-.62,7.02-6.67,7.18-6.94.18-13.88.26-20.83.19-4.34-.05-5.93-1.47-6.04-5.86-.22-8.91-.26-17.83-.08-26.75.1-5-1.62-7.36-6.44-8.24-6.3-1.15-12.54-1.02-18.87-.27-2.86.34-5.83-.21-8.75-.33-2.57-.11-4.85.45-6.47,2.77.67,2.2,2.46,2.15,4.1,2.3,4.3.4,8.61.75,12.91,1.14,5.88.53,6.8,1.68,6.39,7.53-.15,2.14.11,4.32,0,6.47-.16,3.11-1.58,4.5-4.64,4.5-7.7,0-15.41-.05-23.11-.18-3.26-.06-3.95-.7-4.71-3.95-.28-1.18-.31-2.44-.34-3.67-.08-3.97-.03-7.95-.17-11.92-.12-3.28-1.16-4.34-4.57-4.44-4.47-.13-8.94-.15-13.41-.02-5.22.15-10.44.63-15.67.72-2.75.05-5.51-.44-8.27-.64-1.23-.09-2.48-.16-3.7-.06-5.32.44-7.21,2.03-7.81,7.22-.6,5.18-.89,10.34.18,15.59.55,2.7,1.84,3.75,4.2,3.98,2.13.21,4.32,0,6.43.31,3.05.44,3.92,1.82,3.74,4.75-.23,3.83-.29,7.67-.45,11.51-.32,7.53-.58,15.07-1.03,22.59-.12,1.91.16,3.33,1.92,4.25,6.95,3.66,11.54,9.82,15.75,16.01,4.46,6.56,9.4,13.09,11.24,21.03,1.43,6.17,4.21,12.26,1.97,18.9-.52,1.53-.15,3.37-.17,5.07-.14,12.78.37,25.55-1.64,38.31-.97,6.18-.01,12.64-.26,18.96-.4,10.15-.95,20.29-1.68,30.42-.4,5.5-1.28,10.97-1.96,16.46-.66,5.35-1.52,6.16-7,6.52-1.69.11-3.42-.08-5.08.17-1.72.26-3.39.89-5.17,1.38.59,3.23,2.67,3.98,4.81,4.13,3.68.25,7.38.19,11.08.18,1.85,0,3.72-.4,5.53-.19,1.52.18,2.96.98,4.58,1.56-2.43,4.42-4.51,8.26-6.64,12.08-.52.94-.96,2.09-1.77,2.66-3.16,2.19-3.53,5.63-4,8.89-.44,3.03-.34,6.15-.44,9.23-.33,10.16-.39,20.33-1.02,30.47-.55,8.89-2.18,17.73-2.48,26.62-.25,7.5-2.26,14.94-.57,22.57.6,2.72-.55,5.79-.54,8.7.03,9.06.45,18.11.29,27.16-.12,6.73-.97,13.45-1.35,20.18-.16,2.75.11,5.51.08,8.27-.12,12.12-.21,24.25-.45,36.37-.14,7.04-.65,14.08-.77,21.13-.15,9.67-.65,19.39,1.76,28.91.11.45.13.93.31,1.35,4.03,9.66,5.68,20.02,8.8,29.95,3.15,10.01,6.16,20.07,8.89,30.2,6.26,23.23,13.83,46.11,18.42,69.78,1.59,8.18,3.45,16.31,5.36,24.42.99,4.2,2.63,8.25,3.47,12.47.77,3.89.99,7.9,1.22,11.87.19,3.22-.06,6.47.04,9.7.1,3.24-.1,6.3-1.5,9.38-1.11,2.45-1.21,5.34-2.02,7.96-.53,1.7-1.36,3.35-2.34,4.84-1.93,2.93-3.77,6.01-6.16,8.53-3.61,3.8-8.36,5.99-13.05,8.3-8.88,4.38-18.45,4.49-27.92,5.14-9.34.65-18.71.83-28.07,1.15-2.76.09-5.54-.25-8.28-.03-2.96.24-5.28,1.51-5.77,4.93-.55,3.78-1.46,7.5-1.94,11.29-.57,4.54-3.89,6.51-7.45,7.93-5.65,2.26-11.7,2.57-17.72,2.54-4.82-.02-9.46-.94-13.93-2.91-2.1-.93-3.81-2.03-4.63-4.19-1.29-3.43-2.68-6.85-3.69-10.36-1.78-6.18-4.09-8.05-10.53-8.08-2.16-.01-4.31-.31-6.47-.29-9.38.06-18.76.26-28.14.26-11.57,0-23.15-.21-34.72-.21-11.26,0-22.52.16-33.78.22-7.87.05-15.74,0-23.61.1-4.77.06-9.54.37-14.31.44-2.15.03-4.3-.42-6.44-.4-6.6.06-13.19.31-19.79.35-3.07.02-6.14-.4-9.21-.36-8.93.1-17.86.4-26.79.49-14.62.14-29.23.09-43.85.26-12.46.14-24.92.54-37.37.68-4,.05-8-.52-12-.49-6.15.04-12.29.42-18.44.53-9.1.15-18.2.24-27.31.27-12.32.03-24.64-.04-36.95-.04-9.83,0-19.66.07-29.49.07-6.77,0-13.54-.18-20.31-.07-11.67.19-23.34.6-35.02.8-6.75.12-13.51-.03-20.27,0-3.72.02-4.83.82-6.13,4.38-.95,2.6-1.75,5.26-2.65,7.88-1.44,4.2-3.49,7.11-8.37,8.8-9.91,3.43-19.7,2.76-29.57,1.22-4.21-.66-6.79-4.19-8.44-7.94-1.41-3.21-2.36-6.64-3.34-10.02-.99-3.41-2.99-5.11-7.21-5.23-5.39-.15-10.8.01-16.19-.1-10.47-.23-21.04.29-31.36-1.09-9.92-1.33-19.7-4.77-26.64-12.65-5.14-5.84-9.93-11.95-12.33-19.82-2.41-7.92-4.25-15.83-3.71-24.02.39-5.93,1.53-11.92,3.19-17.63,3.68-12.66,8.03-25.12,11.82-37.75,1.49-4.97,2.14-10.19,3.29-15.27.47-2.07,1.29-4.07,1.9-6.11,2.76-9.31,5.58-18.6,8.23-27.94,1.51-5.33,2.83-10.71,4.06-16.11,2.42-10.63,5.17-21.15,8.69-31.5,2.16-6.37,3.32-13.09,4.93-19.65.18-.75.22-1.57.55-2.23,3.16-6.28,2.28-12.85,1.74-19.49-.68-8.28-.96-16.59-1.38-24.89-.33-6.45-.69-12.9-.9-19.35-.32-9.69-.5-19.38-.81-29.07-.09-2.75-.45-5.49-.67-8.24-.5-6.43-1-12.86-1.45-19.29-.18-2.58-.21-5.18-.35-7.76-.14-2.6-.38-5.19-.52-7.79-.45-8.54-.76-17.09-1.35-25.61-.44-6.29-1.25-12.56-1.84-18.84-.5-5.32-.93-10.62-.81-16,.15-6.59-.51-13.2-.83-19.79-.02-.46-.1-.93-.25-1.36-2.94-8.59-3.1-17.52-3.51-26.45-.06-1.37-1.06-2.77-1.83-4.02-1.86-3.01-4.15-5.78-5.69-8.93-2.15-4.39-.02-8.31,4.67-9.53,6.37-1.66,12.81-1.57,19.31-1.17,3.21.2,6.46-.04,9.67-.28.89-.07,1.73-.87,2.63-1.35-1.23-2.45-3.19-2.24-5-2.3-5.09-.15-10.18-.28-15.27-.36-5.71-.1-8.11-1.97-8.97-7.74-.66-4.41-.9-8.89-1.27-13.34-.48-5.66-.97-11.33-1.35-17-.56-8.41-.99-16.84-1.54-25.25-.46-7.04-1.41-14.07-1.4-21.1,0-8.27-.11-16.58,1.28-24.83,1.67-9.95,5.78-18.84,11.25-27.13,2.45-3.72,5.15-7.43,8.38-10.45,3.78-3.54,8.2-6.43,12.49-9.39,2.4-1.66,5.19-2.75,7.63-4.36,1.36-.9,2.7-2.17,3.45-3.59,1.43-2.67-.34-5.97-3.3-6.23-6.28-.55-12.59-1.55-18.85-.03-2.34.57-4.75,1.32-6.8,2.54-6.36,3.77-12.58,7.8-18.83,11.76-1.43.9-2.75,1.97-4.18,2.87-2.73,1.71-5.52,3.32-8.24,5.04-2.07,1.31-4.1,2.7-6.12,4.09-1.27.87-2.44,1.9-3.74,2.71-7.05,4.35-14.17,8.61-21.21,12.98-6.8,4.23-13.56,8.53-20.31,12.84-5.17,3.31-10.33,6.62-15.38,10.09-1.16.8-2.12,2.17-2.71,3.49-1.92,4.25-2.65,8.73-2.89,13.44-.4,8-2.55,15.73-4.72,23.44-2.5,8.89-4.51,17.95-8.95,26.16-3.55,6.54-8.36,11.72-15.89,13.58-2.08.51-4.28.48-6.4.83-8.01,1.31-11.03-6.69-9.75-11.95,1.88-7.8,4.91-15.17,8.33-22.42,3.15-6.67,6.94-13.14,8.04-20.6.94-6.39,1.72-12.79,2.54-19.2.86-6.71,1.29-13.53,4.41-19.72.89-1.77,1.68-3.81,3.11-5.04,4.52-3.87,8.85-7.9,14.66-10.14,6.86-2.65,13.36-6.21,20.09-9.22,10.53-4.71,21.18-9.15,31.65-13.97,6.57-3.02,12.92-6.55,19.38-9.81,4.66-2.35,9.32-4.75,14.07-6.91,1.87-.85,3.02-2.06,3.54-3.95.2-.74.4-1.51.41-2.27.2-9.06.4-18.12.53-27.19.04-2.6.04-5.23-.31-7.79-.5-3.7-.97-4.02-4.8-4.09-4.47-.07-8.95-.18-13.42.03-5.49.27-8.96-3.26-7.6-9.7.38-1.81.71-3.64,1-5.46.57-3.62,1.68-4.67,5.38-4.8,3.85-.13,7.71-.06,11.55-.32,1.53-.1,3.01-.87,4.51-1.33.02-.42.03-.85.05-1.27ZM278.83,869.78s0-.06,0-.09c-2.78,0-5.55.01-8.33,0-2.35-.01-3.68-1.02-3.92-3.55-.38-3.98-1.04-7.93-1.5-11.9-.86-7.42-4.77-12.86-11.08-16.53-4.92-2.86-10.14-5.21-15.1-8-3.91-2.2-5.91-5.73-5.92-10.27,0-3.85.06-7.69.08-11.54.02-3.39-.78-4.56-4.06-4.96-3.19-.39-6.44-.62-9.65-.52-3.69.11-4.4.97-5.46,4.41-1.96,6.35-.59,12.81-.75,19.22-.02.72.47,1.45.74,2.18,2.18,5.87,6.45,9.44,12.13,11.93,7.01,3.08,14.48,4.24,21.79,6.04,4.79,1.18,8,3.95,8.64,8.46.46,3.2.54,6.45.76,9.68.15,2.25-.36,4.1-2.2,5.77-2.08,1.88-1.8,3.57.06,5.5,1.25,1.3,2.43,2.7,3.41,4.2,1.03,1.6,1.93,3.28,4.11,3.25,2.18-.03,2.65-1.86,3.18-3.46.71-2.13,1.99-3.39,4.34-3.48,6.47-.23,12.94-.51,19.4-.75,5.84-.21,11.69-.42,17.53-.59,1.23-.04,2.46.02,3.69.12,3.9.31,5.39-.61,6.37-4.33.35-1.31.37-2.73.4-4.11.12-5.2,1.12-6.43,6.12-6.62,4.47-.17,8.95-.04,13.42-.11,8.02-.14,16.05-.09,24.04-.57,8.14-.49,9.31.21,10.09,8.17.03.31,0,.62.05.92.64,5.52,1.67,6.68,7.24,6.88,3.82.13,7.67-.46,11.5-.43,7.7.05,15.4.39,23.1.42,4.62.02,9.24-.5,13.86-.48,9.68.05,19.36.44,29.04.42,10.46-.02,20.92-.43,31.39-.49,6.62-.04,13.24.34,19.87.37,5.7.02,11.39-.27,17.09-.29,9.55-.04,19.1,0,28.64.06,11.86.08,23.72.37,35.58.28,13.81-.1,27.62-.54,41.43-.79,9.07-.17,18.17.02,27.22-.5,10-.57,19.94.83,29.96.08,9.04-.67,18.17-.21,27.26-.25.93,0,1.86.02,2.78-.06,2.44-.19,4.01-1.46,4.56-3.87.27-1.2.51-2.42.69-3.64.6-4.16,1.22-5.02,5.44-5.46,3.33-.34,6.71-.09,10.07-.15,11.23-.21,22.45-.52,33.68-.65,4.43-.05,6.13,1.72,6.38,6.1.04.77-.08,1.54-.05,2.31.15,3.99,1.87,5.4,5.93,5.08,3.53-.28,7.08-.5,10.62-.58,5.67-.13,5.89-.22,6.07-6.08.17-5.68.13-11.37.26-17.06.19-8.29.43-16.58.7-24.87.21-6.45,1.36-12.88.25-19.35-.12-.72.22-1.52.29-2.28.51-5.05,1.2-10.09,1.44-15.15.33-6.75.26-13.52.46-20.28.16-5.08.84-10.17.65-15.24-.34-9.12,0-18.24,1.65-27.13,1.11-6,1.41-11.9,1.47-17.9.02-2.31.17-4.62.29-6.93.48-9.53,1.15-19.06,1.41-28.6.17-6.12-.27-12.27-.42-18.4-.03-1.08-.01-2.16,0-3.23.09-4.54.45-9.1.24-13.63-.36-7.94-1.67-15.81-.58-23.85.58-4.22-.06-8.61-.19-12.92-.1-3.52-.26-7.03-.37-10.55-.02-.75.12-1.51.12-2.27-.05-5.54-.3-11.09-.15-16.63.15-5.48-1.29-11,.48-16.45.27-.82-.01-1.83-.08-2.76-.25-3.22-.72-6.43-.74-9.65-.04-8.48.26-16.97.14-25.44-.12-8.47-.64-16.93-.87-25.4-.32-11.69.09-23.38-.74-35.08-.86-12.11-.37-24.29-1.26-36.44-.92-12.59-.25-25.25-.78-37.9-.64-15.52-.66-31.11.45-46.7,1-14.12.52-28.35.48-42.54-.02-8.32-.55-16.64-.69-24.97-.09-5.07.28-10.14.16-15.2-.26-10.62-.86-21.24-1.04-31.87-.11-6.42.43-12.86.44-19.29,0-2.06-.88-4.11-1.16-6.19-.18-1.31-.4-2.85.11-3.98,1.65-3.7,1.38-7.42,1.03-11.3-.43-4.73-.41-9.52-.42-14.28,0-2.6.53-5.2.47-7.79-.13-5.21-.72-10.42-.74-15.63-.03-7.67-.94-15.31-.4-23.02.31-4.4-.74-8.88-.73-13.32,0-3.57,1.41-6.9,1.04-10.73-.74-7.78-.38-15.67-.51-23.51-.05-2.74-.91-5.69-.18-8.18,1.16-3.96-.13-7.63-.2-11.42-.07-3.41-1.42-4.52-4.96-4.7-4.74-.25-9.49-.3-14.24-.31-5.99-.02-11.99.08-17.98.11-4.91.03-9.83.1-14.74.06-2.45-.02-4.9-.26-7.35-.41-.76-.05-1.57-.34-2.28-.17-7.46,1.78-15.01.2-22.51.54-6.11.28-12.26-.3-18.39-.35-8.12-.06-16.24.08-24.37.04-5.52-.03-11.03-.36-16.54-.31-6.28.06-12.55.51-18.83.6-6.9.1-13.79,0-20.69-.05-9.23-.07-18.45-.19-27.68-.28-.46,0-.92.12-1.37.13-7.07.05-14.14.14-21.21.1-6.44-.04-12.92-.7-19.31-.21-4.17.31-8.25.47-12.38.02-.46-.05-.92-.08-1.38-.08-14,.14-28.01.33-42.01.4-5.07.02-10.14-.42-15.21-.35-6.27.09-12.54.68-18.82.7-7.55.01-15.1-.4-22.65-.55-6.46-.13-12.93-.23-19.4-.18-7.24.05-14.48.41-21.71.4-6.61,0-13.21-.48-19.82-.46-11.24.03-22.48.38-33.73.42-7.99.03-15.98-.3-23.97-.35-7.05-.04-14.1.06-21.15.16-3.36.05-6.74.05-10.07.41-4.32.46-4.81,1.08-4.92,5.61-.16,6.54-.14,13.08-.27,19.62-.11,5.24-.39,10.47-.49,15.71-.14,7.34-.19,14.68-.28,22.02,0,.77.01,1.54.06,2.3.48,8.12,1.32,16.23,1.34,24.35.02,7.36-.86,14.72-1.34,22.08-.04.61-.29,1.41,0,1.82,2.13,3.02.75,6.59,1.59,9.84.51,1.97-.18,4.25-.27,6.39-.09,2.12-.13,4.24-.11,6.37,0,1.07.28,2.14.28,3.21-.01,6.28-.14,12.55-.09,18.83.06,7.11-1.48,14.21.14,21.35.42,1.84-.54,3.94-.51,5.92.13,8.25.43,16.5.61,24.75.07,3.54.81,7.36-.24,10.57-1.2,3.66.18,6.82.15,10.2-.02,2.14.73,4.4.23,6.38-1.49,5.91,1.18,12-1.01,17.82-.09.24.1.6.19.89,2.07,7.13-.6,14.32.21,21.48.32,2.87.06,5.81.09,8.71.05,5.39.13,10.78.16,16.18.02,3.31-.11,6.62-.04,9.93.07,3.52.49,7.04.37,10.54-.16,4.7-1.16,9.39.15,14.08.12.44.12.92.13,1.38.23,8.83-.35,17.65-.54,26.47-.1,4.43.3,8.77.41,13.15.06,2.28.13,4.57.17,6.85.09,5.51.15,11.03.23,16.54.09,6.3.19,12.59.28,18.89,0,.31.1.72-.05.91-2.39,2.96-.62,6.1-.45,9.18.14,2.46.26,4.93.31,7.39.11,5.78.13,11.57.27,17.35.06,2.61.52,5.21.46,7.81-.13,5.83-.68,11.65-.67,17.47.02,5.8.69,11.59.77,17.39.14,9.38.02,18.77.02,28.16,0,5.03.1,10.07-.02,15.1-.18,7.21,1.24,14.4.09,21.62-.14.9.02,1.85.05,2.77.27,7.51.64,15.03.79,22.54.08,3.82-.33,7.64-.32,11.46,0,2.61.57,5.23.5,7.84-.17,5.77-.91,11.5-.31,17.33.42,4.09-.11,8.27-.24,12.41-.05,1.52-.16,3.04-.25,4.56-.25,4.27-.09,8.52-.67,12.83-.55,4.13.94,8.49,1.19,12.77.32,5.49.29,11,.4,16.51.09,4.44.1,8.89.28,13.32.28,6.59.85,13.18.99,19.77.16,7.66-.22,15.34.02,23,.3,9.83,1.13,19.64,1.46,29.46.28,8.31.1,16.64.27,24.96.11,4.91.51,9.82.79,14.73.19,3.38.57,6.76.52,10.14-.06,3.71-1.51,4.82-5.23,4.6-2.16-.13-4.31-.26-6.47-.38ZM503.93,888.11c1.59-.48,3.14.09,3.71,1.96.62,2.02,1.03,4.17,1.1,6.27.12,4.16-.34,8.34-.05,12.48.34,5.02.31,10.13,2.51,14.92,1.05,2.28,2.42,3.38,4.89,3.4,4.45.02,8.9.15,13.36.25,8.79.19,9.08.45,11.47,8.58.66,2.25,1.64,4.44,4.32,4.92,4.42.78,8.98-3.72,8.41-8.16-.88-6.83-2.86-13.43-3.77-20.31-.96-7.23-.91-14.37-1.25-21.56-.03-.72.73-1.49,1.12-2.23.73.43,1.96.74,2.11,1.32,1.13,4.42,2.99,8.93,2.82,13.34-.31,7.75,2.72,14.39,5.21,21.27.74,2.04,2.31,2.73,4.76,2.65,7.68-.27,15.37-.17,23.05-.06,6.44.09,12.88.5,19.32.59,3.37.05,6.74-.41,10.12-.44,5.38-.05,10.77.16,16.15.08,5.06-.08,10.11-.5,15.16-.56,5.53-.06,11.07.27,16.6.15,8.61-.18,17.21-.78,25.82-.85,8.01-.07,16.01.37,24.02.49,2.6.04,5.21-.26,7.81-.34,2.15-.07,4.3-.06,6.46-.06,4.45,0,8.9.1,13.35.01,5.85-.11,11.7-.52,17.55-.51,9.24,0,18.48.3,27.72.35,1.83.01,3.67-.42,5.48-.79,2.92-.6,4.59-2.38,4.72-5.45.13-3.07.25-6.14.4-9.21.38-7.96.84-15.92,1.12-23.88.11-3.13-1.23-4.74-4.28-4.95-3.36-.24-6.75.13-10.13.05-4.17-.1-6.68,1.51-7.3,5.88-.37,2.6-2.16,3.99-4.86,4.06-1.69.04-3.38.21-5.06.19-4.63-.05-9.25-.29-13.88-.24-7.24.09-14.47.38-21.7.54-1.38.03-2.78-.07-4.15-.21-2.77-.28-5.05-1.2-5.95-4.24-1.03-3.5-4.02-4.72-7.13-4.93-5.67-.38-11.38-.32-17.07-.36-5.07-.03-10.14.11-15.21.05-2.44-.02-4.88-.46-7.32-.46-6.31,0-12.63.14-18.94.21-10.77.12-21.54.22-32.32.32-6.13.05-12.26.14-18.39.1-5.07-.03-10.15-.34-15.22-.29-7.19.06-14.41.79-21.57.38-5.53-.32-10.99-.6-16.54-.33-8.13.39-16.3.06-24.45.12-11.39.09-22.78.29-34.18.39-6.78.05-13.56-.04-20.34-.02-8.47.03-16.93.18-25.4.17-14.47-.01-28.94-.14-43.41-.15-8.78,0-17.57.39-26.34.08-3.75-.13-5.88.94-6.86,4.44-.67,2.4-2.32,3.52-4.71,3.74-1.23.11-2.45.36-3.68.36-12.33.03-24.66.02-37,0-.77,0-1.54-.12-2.3-.24-3.01-.47-5.66-1.43-6.98-4.57-1.02-2.42-3.19-3.34-5.59-3.47-4.3-.23-8.62-.28-12.93-.32-1.22,0-2.47.19-3.65.5-1.79.47-2.95,1.63-3.06,3.6-.19,3.54-.57,7.08-.51,10.61.13,7.39.56,14.77.75,22.16.15,6.08,2.15,8.38,8.12,8.93.46.04.92.07,1.39.07,6.16-.04,12.32-.02,18.47-.15,7.04-.15,14.07-.54,21.11-.64,4.28-.06,8.56.35,12.84.33,5.84-.03,11.69-.34,17.53-.4,7.05-.08,14.11-.12,21.17-.01,8.46.13,16.92.44,25.38.63,2.31.05,4.62-.03,6.93-.11,4.75-.15,9.5-.4,14.25-.49,10.16-.2,20.31-.38,30.47-.45,5.85-.04,11.71,0,17.56.27,4.06.18,4.42.93,5.42,4.81.56,2.17,1.67,4.28,2.92,6.16,1.16,1.77,3.38,1.86,5.04,1.11,1.16-.52,2.33-2.08,2.58-3.36.63-3.15,1.18-6.44.95-9.61-.51-7.04-1.51-14.05-2.32-21.07-.14-1.22-.56-2.48-.37-3.64.76-4.65,1.72-9.26,2.66-14.17ZM844.52,1572.84c.95.57,1.65.87,2.19,1.35,1.36,1.21,2.45,3.17,4.01,3.65,7.04,2.19,14.13,5.02,21.36,5.63,9.73.82,19.67.32,29.09-3.24,1.73-.65,3.57-1.05,5.21-1.87,2.71-1.35,3.11-2.8,2.29-5.7-1.02-3.58-3.97-5.03-6.94-6.24-2.55-1.03-3.41-2.54-3.43-5.25-.04-4.26-.1-8.61-.99-12.75-1.45-6.75-3.22-13.47-5.47-19.99-3.63-10.52-10.43-19.09-17.8-27.27-3.05-3.38-6.67-4.83-10.95-5.12-2.15-.14-4.32-.05-6.48.03-7.24.24-14.47.61-21.71.76-4.99.1-6.99,1.25-8.08,6.29-.79,3.66-2.55,5.39-6.26,5.29-.91-.03-1.87.52-2.73.36-4.92-.86-8.66,1.84-12.37,4.22-3.68,2.36-3.35,7.02.54,8.95,2.03,1.01,4.36,1.52,6.62,1.92,6.85,1.24,13.77,1.33,20.73,1.09,5.7-.2,10.55-1.85,14.44-6.09.35-.39.99-.52,1.56-.8,2.01,2.47,1.3,5.18,1.46,7.73.19,2.87-1.25,4.78-3.73,5.79-6.98,2.85-13.85,5.81-21.82,4.5-5.84-.96-7.64.89-8.3,6.79-.33,2.97-1.42,4.18-4.4,4.22-2.45.04-4.9-.33-7.36-.48-1.37-.08-2.79-.34-4.09-.08-3.59.72-7.19,1.51-10.69,2.59-2.15.67-4.36,1.61-6.09,3-2.6,2.1-2.47,4.44-.11,6.68,2.4,2.27,5.18,3.84,8.5,4.34,1.37.21,2.79.29,4.09.73,6.32,2.1,12.79,1.63,19.24,1.15,4.56-.34,8.69-1.92,12.3-4.83.66-.53,1.58-.74,2.34-1.08,2.77,4.38,2.7,8.88-.62,10.82-3.35,1.95-6.44,4.56-10.9,4.46-3.98-.09-7.52,1.44-8.87,5.97-.69,2.32-2.75,3.2-5.06,3.39-5.52.46-11.04.98-16.56,1.34-10.75.69-21.51,1.29-32.27,1.93-.15,0-.31.03-.46.04-8.13.59-16.26,1.2-24.4,1.76-4.92.34-9.84.62-14.77.91-1.91.11-3.34.82-3.44,2.95-.19,3.95,3.06,8.42,7.01,9.01,2.98.44,6.09.06,9.13.14,8.6.22,17.19.61,25.79.7,5.07.05,10.15-.45,15.23-.5,9.06-.09,18.12,0,27.18-.04,8.62-.03,17.24-.07,25.86-.19,15.24-.21,30.48-.5,45.72-.73,2.65-.04,4.61-1.14,6.26-3.57-3.74-1.95-7.62-2.11-11.32-2.81-5.65-1.07-11.08-2.71-15.94-5.84-4.85-3.12-6.53-9.91-3.75-16.01ZM188.85,1522.76c4,3.74,8.27,6.39,13.65,6.5,5.06.11,10.15.21,15.19-.15,6.75-.48,13.53-1.11,18.45-6.85,1.31-1.53,2.83-1.14,3.78.46,1.26,2.1,1.02,10.51-.85,12.04-4.64,3.78-9.26,8.16-15.52,8.67-9.4.76-18.82.49-27.92-2.56-4.46-1.49-7.38.28-8.16,4.82-.91,5.31-1.99,10.59-3.02,15.88-.57,2.94-2.06,4.94-5.14,5.9-2.61.81-5.16,2.03-7.51,3.44-2.2,1.32-3.8,3.52-3.25,6.18.55,2.66,2.36,4.5,5.17,5.37,7.23,2.23,14.59,3.94,22.15,4.03,11.76.15,23.45-.31,33.21-8.36,1.5-1.24,3.14-.84,3.59,1.07.47,2.01.83,4.38.22,6.26-2.1,6.57-6.32,11.17-13.45,12.49-2.14.4-4.21.94-5.12,3.96,1.38.65,2.63,1.53,4.01,1.81,2.1.43,4.28.55,6.44.6,4.61.11,9.25-.21,13.82.19,9.52.83,19.02,1.42,28.55.34.76-.09,1.54-.04,2.31,0,12.93.75,25.84.85,38.78,0,8.45-.56,16.92-.73,25.39-.89,8.46-.16,16.93.01,25.38-.21,2.06-.05,4.25-.79,6.1-1.75,2.36-1.22,3.53-3.53,3.11-6.22-.44-2.88-2.87-3.35-5.24-3.62-7.8-.89-15.61-1.72-23.41-2.62-8.42-.98-16.82-2.09-25.24-3.02-9.94-1.1-19.91-1.91-29.82-3.16-4.21-.53-8.81-.15-12.47-2.74-2.89-2.05-5.77-3.41-9.37-3.24-1.83.09-3.69-.22-5.53-.37-5.53-.47-11.12-.74-16.18-3.44-4.46-2.38-7.42-5.9-8.16-11.01-.32-2.23.07-4.24,2.85-5.66.98,1.28,1.93,2.41,2.75,3.63,1.55,2.28,3.61,3.71,6.3,4.37,11.53,2.79,22.87,1.91,34.17-1.37,2.65-.77,4-2.4,4.25-4.83.26-2.57-1.44-4.72-3.5-5.56-3.66-1.48-7.56-2.64-11.47-3.12-3.34-.41-5.39-1.68-6.7-4.68-1.75-4.02-2-8.82-5.91-11.77-.21-.16-.27-.55-.32-.85-.73-4.38-2.39-8.66-1.66-13.22.81-5.09-.71-9.7-2.49-14.37-1.52-3.99-4.39-5.28-8.23-5.35-2.3-.04-4.61-.01-6.91-.02-6.47-.02-12.94-.06-19.4-.05-2.8,0-5.07,1.22-6.8,3.39-1.63,2.04-3.64,3.93-4.72,6.24-1.68,3.61-4.45,5.09-7.99,6.32-3.35,1.16-7.13,2.39-8.17,7.12ZM677.46,1585.52s0-.09,0-.13c.77,0,1.55.05,2.32,0,5.37-.44,10.76-.78,16.11-1.44,1.14-.14,2.71-1.24,3.06-2.25.59-1.71-.9-2.9-2.45-3.33-2.05-.56-4.19-.95-6.31-1.09-2.45-.16-4.92.12-7.38.06-6.91-.15-13.79.21-20.75-.29-8.55-.62-17.21.68-25.83.79-7.79.1-15.6-.46-23.39-.4-7.85.06-15.69.62-23.53.77-6.78.12-13.56-.1-20.33-.05-9.22.06-18.43.29-27.65.34-4.46.03-8.92-.32-13.38-.26-11.4.13-22.79.42-34.19.59-5.65.08-11.31.01-16.96.03-3.68.01-7.36.1-11.05.07-4.43-.03-8.86-.21-13.29-.21-3.83,0-7.67.15-11.5.25-9.39.25-18.78,1.16-28.17,0-.59-.07-1.22.22-1.83.23-6.15.11-12.31.12-18.46.32-2.89.09-5.8.37-8.65.88-1.74.32-4.13.85-3.84,3.21.28,2.28,2.57,2.81,4.62,3.14.45.07.92.03,1.39.04,7.98.18,15.96.47,23.94.51,7.23.03,14.47-.27,21.7-.31,13.57-.07,27.14.07,40.71-.09,10.16-.12,20.31-.56,30.47-.84,1.23-.03,2.47-.02,3.7.06,6.28.42,12.57,1.36,18.83,1.17,7.22-.21,14.4-.64,21.65-.27,7.51.38,15.06-.09,22.59-.25,2.29-.05,4.58-.44,6.88-.43,5.99.04,11.98.35,17.97.3,6.77-.06,13.54-.52,20.31-.59,10.78-.1,21.57.06,32.35-.06,3.21-.04,6.42-.92,9.63-.93,6.91-.02,13.81.29,20.72.46ZM227.52,916.75s.04,0,.07,0c-.22-3.84-.43-7.68-.66-11.53-.14-2.33-1.41-3.74-3.69-4.03-2.74-.35-5.51-.76-8.26-.73-11.84.14-23.67.42-35.5.68-4.11.09-6.35,2.02-6.45,6.1-.13,5.54.09,11.08.16,16.62.02,1.83.89,2.87,2.78,2.97,2.31.13,4.62.22,6.92.43,3.19.29,4.02.93,4.6,4.11.49,2.72.71,5.49.9,8.25.16,2.24,1.19,3.42,3.46,3.43,4.92.02,9.85.07,14.77.04,2.17-.01,3.46-1.29,3.84-3.32.22-1.16.05-2.4.01-3.61-.1-3.06,1.37-5.01,4.41-5.45,1.82-.26,3.69-.15,5.54-.3,5.21-.43,7.04-2.42,7.09-7.68.02-1.99,0-3.99,0-5.98ZM871.6,813.17c-.11-.6-.28-1.5-.43-2.42-.75-4.47-2.49-6.66-6.51-7.28-4.76-.73-9.67-1.24-13.2,3.15-.7.87-.87,2.27-1.01,3.46-.35,2.9-.71,5.82-.74,8.74-.05,3.77-1.75,6.49-4.79,8.44-4.4,2.83-8.76,5.76-13.35,8.25-3.04,1.65-4.67,4.15-5.28,7.18-.67,3.29-.82,6.73-.78,10.1.04,3.84.66,7.66.8,11.5.05,1.49-.02,3.41-.88,4.42-3.8,4.45-.86,8.49.61,12.46.99,2.68,3.37,3.09,5.04.99,1.87-2.36,3.57-5.05,4.52-7.88.44-1.3-1.12-3.25-1.73-4.92-.21-.57-.24-1.21-.42-1.79-1.59-5.05.09-10.08.09-15.13,0-5.15,2.82-8.74,7.61-10.53,2.73-1.02,5.61-1.65,8.46-2.31,5.49-1.27,10.53-3.55,14.8-7.19,5.81-4.94,6.3-12.05,7.19-19.26ZM832.6,1449.69c5.77-.59,11.31-.97,16.79-1.77,4.76-.7,9.24-2.38,12.97-5.62,3.83-3.32,3.3-7.27-1.29-9.49-.69-.33-1.41-.65-2.15-.82-5.34-1.28-10.4-3.6-16.1-3.53-5.82.08-11.68-.79-17.47-.44-4.4.26-8.72,1.75-13.07,2.76-1.64.38-3.31.8-4.86,1.44-2.64,1.1-4.14,3.32-4.38,6.07-.25,2.79,1.63,4.17,3.96,5.58,8.03,4.84,17.07,4.65,25.61,5.83ZM242.22,1451.1c6.78.79,14.31-.7,21.86-2.27,4.26-.89,6.21-4.29,8.37-7.4.52-.75.32-2.67-.31-3.38-1.37-1.55-3.03-3.23-4.91-3.87-8.2-2.82-16.76-4.11-25.4-3.84-6.28.2-12.6.97-18.78,2.12-3.04.57-6.11,2.16-8.63,4.02-3.21,2.37-3.23,5.55-.3,8.24,1.76,1.61,3.99,2.91,6.23,3.76,6.72,2.53,13.71,3.48,21.88,2.63ZM430.47,1343.09c-.01-.13-.03-.26-.04-.4-4.88.57-9.8.88-14.61,1.8-3.12.6-6.21,1.82-9.04,3.29-1.23.64-2.28,2.54-2.49,4-.3,2.07,1.48,3.55,3.32,3.86,6.18,1.06,12.07,3.61,18.5,3.38,7.82-.27,15.65-.26,23.46-.66,4.88-.25,9.75-.97,14.59-1.65,1.15-.16,2.34-.83,3.28-1.56,3.57-2.78,3.13-7-1-8.76-2.25-.96-4.67-1.67-7.08-2.03-8.66-1.29-17.3-3.06-26.13-1.43-.9.17-1.84.11-2.76.16ZM635.2,1359c7.84-.35,13.86-.38,19.81-.99,3.31-.34,6.64-1.34,9.76-2.57,3.93-1.55,4.31-5.34.93-7.82-1.57-1.16-3.4-2.06-5.24-2.75-4.66-1.76-9.37-2.38-14.45-1.54-3.4.56-7.04-.52-10.56-.38-7.06.27-14.15.53-21.14,1.48-3.04.41-6.18,2.06-8.69,3.93-3.52,2.62-2.72,5.84,1.48,6.91,3.55.9,7.26,1.16,10.78,2.14,6.32,1.74,12.73,1.6,17.31,1.62ZM533.28,1548.39c-5.02.65-9.93,1.07-14.75,1.99-2.35.45-4.64,1.62-6.72,2.87-1,.61-1.68,2.07-2.09,3.28-1.32,3.9,2.42,7.43,7.04,8.68,4.25,1.15,8.82,1.69,13.22,1.53,6.28-.23,12.53-1.28,18.78-2.13,1.33-.18,2.71-.76,3.82-1.51,2.91-1.95,4.38-6.41,2.47-8.34-1.87-1.9-4.27-3.86-6.76-4.44-4.9-1.14-10.02-1.35-15.01-1.94ZM666.5,1515.41c-.14,2.73-.89,5.61,1.66,7.36,2.48,1.71,5.22,3.76,8.05,4.15,6.8.93,13.72,1.34,20.58,1.25,3.91-.05,7.9-1.19,11.67-2.43,3.76-1.24,4.64-4.18,3.03-7.77-.85-1.9-2.17-3.13-4.09-4.12-5.66-2.93-11.79-3.01-17.9-3.52-6.62-.56-12.84.41-18.72,3.59-1.18.64-2.56.91-4.28,1.51ZM529.6,1522.33c2.03,3.49,6.23,6.59,10.53,7.4,9.49,1.8,19.01,1.68,28.45-.2,2.19-.43,4.36-1.63,6.21-2.94,3.16-2.23,3.38-6.06.16-8.04-3.34-2.05-7.12-3.93-10.92-4.52-6.34-.98-12.83-1.34-19.31-.44-6.28.87-12.29,1.97-15.12,8.74ZM534.56,1432.38c-6.53-.31-12.59,1.12-18.55,3.39-2.46.94-4.42,2.21-4.59,5.13-.16,2.71,1.08,4.82,4.23,5.83,4.07,1.31,8.28,2.16,12.43,3.19,8.56,2.12,16.74.02,24.9-2.29.87-.25,1.71-.73,2.45-1.26,3.38-2.4,3.72-5.81.59-8.47-1.47-1.25-3.33-2.37-5.18-2.76-5.38-1.13-10.85-1.86-16.28-2.75ZM418.75,1512.11c-2.15,0-4.3-.1-6.43.03-2.14.13-4.31.28-6.39.77-2.82.66-5.8,1.22-8.27,2.6-4,2.25-3.9,7.13.22,9.21,3.23,1.63,6.83,2.91,10.4,3.43,4.82.7,9.77.41,14.65.77,5.43.4,10.11-2.09,15.03-3.63,1.26-.4,2.39-1.41,3.41-2.32,1.99-1.77,2.05-3.62.13-5.55-.84-.85-1.94-1.48-3-2.06-6.18-3.38-13.03-3.13-19.75-3.24ZM398.49,1567.61c4.08-1.06,8.74-2.04,13.24-3.54,1.95-.65,3.75-2.14,5.25-3.62,3.12-3.09,2.54-6.44-1.51-7.97-3.27-1.24-6.73-2.15-10.19-2.64-3.14-.44-6.39-.13-9.59-.12-3.66.02-7.39-.32-10.98.23-4.2.64-8.5,1.49-10.93,5.88-1.7,3.08-1.46,5.5,1.45,7.4.88.57,1.94,1.03,2.97,1.2,6.52,1.08,13.06,2.06,20.29,3.18ZM665.85,1430.72c-6.53-.04-12.97.33-18.36,4.79-4.31,3.56-4.04,7.35,1.16,9.39,3.4,1.34,7.11,1.9,10.67,2.82,7.55,1.94,14.98.38,22.39-.91,1.61-.28,3.17-1.23,4.59-2.14,4.34-2.76,4.79-7.14.66-10.21-4.27-3.17-9.37-4.39-14.72-4.2-2.14.08-4.27.3-6.4.46ZM516.28,1490.12c6.85.28,13.88-1.04,19.18-3.95.83-.45,1.58-1.45,1.89-2.36,1.1-3.25.1-5.7-3.03-7.29-1.77-.9-3.66-1.68-5.59-2.13-10.74-2.53-21.36-1.09-31.92,1.24-1.18.26-2.28.92-3.4,1.42-1.98.88-3.7,2.52-3.35,4.5.3,1.68,1.81,3.77,3.34,4.46,3.3,1.5,6.89,2.57,10.48,3.17,4.07.68,8.26.66,12.4.94ZM577.38,1488.49c.05-.27.09-.54.14-.8,1.54,0,3.1.18,4.61-.03,5.65-.81,11.22-1.78,15.49-6.19,3.42-3.54,3.18-6.02-1.28-8.12-6.52-3.07-13.39-4.38-20.61-3.69-2.29.22-4.62.18-6.88.55-4.39.71-8.82,1.57-12.23,4.71-3.2,2.95-2.21,8.55,1.92,9.64,6.19,1.64,12.55,2.66,18.84,3.94ZM490.7,1513.21c-.03.11-.07.23-.1.34-3.22.2-6.48.15-9.64.67-3.17.52-6.32,1.42-9.35,2.49-4.29,1.52-5.05,4.85-2.08,8.27.6.69,1.29,1.36,2.06,1.84,3.72,2.27,7.66,4.23,12.1,4.17,6.3-.08,12.61-.39,18.89-.97,2.22-.2,4.49-1.22,6.48-2.33,2.74-1.52,4.11-4.24,4.06-7.32-.05-3.11-2.75-4.03-5.14-4.48-5.72-1.08-11.5-1.82-17.26-2.7ZM464.47,1451.48c3.66-.38,7.32-.68,10.96-1.17,3.82-.51,6.37-2.88,8.14-6.14,1.62-2.99.88-5.83-2.26-7.26-2.76-1.25-5.73-2.3-8.71-2.71-4.68-.64-9.44-.79-14.17-.94-4.79-.15-9.62.04-13.86,2.61-2.25,1.36-5.59,2.23-5.31,5.71.29,3.6,3.54,5.07,6.31,6.01,6.08,2.08,12.2,4.42,18.89,3.88ZM713.59,1487.09c2.87,0,5.02-.09,7.17.02,4.26.21,8.22-1.02,12.09-2.54,2.6-1.02,4.27-3.22,4.52-5.93.26-2.84-1.85-4.31-4.27-5.34-4.28-1.82-8.66-3.14-13.37-3.11-4.3.03-8.61,0-12.91-.04-5.06-.04-9.6,1.85-14.07,3.89-1.86.85-2.92,2.48-2.12,4.53,1.03,2.65,2.82,4.85,5.62,5.71,5.87,1.81,11.84,3.24,17.36,2.8ZM598.16,1450.03c2.4-.2,4.09-.3,5.77-.5,1.68-.2,3.37-.8,5.01-.68,3.51.26,6.31-1.12,8.9-3.19,3.75-3.01,3.85-6.08.2-9.23-1.02-.88-2.32-1.75-3.6-1.97-4.68-.83-9.4-1.8-14.13-1.92-5.04-.13-10.14.44-15.16,1.1-2.69.35-5.48,1.16-7.86,2.43-3.51,1.88-3.66,4.55-1.13,7.58,1.79,2.13,4.08,3.34,6.7,3.83,5.29.99,10.62,1.79,15.29,2.56ZM622.95,1530.2c6.6.84,12.46-1.94,18.42-3.91,3.68-1.22,4.17-6.66.74-8.53-3.33-1.81-7.03-3.69-10.7-3.98-7.02-.55-14.13-.15-21.19.19-2.88.14-5.81.92-8.57,1.84-4.72,1.58-5.33,5.21-1.89,8.87,2.34,2.49,5.19,3.94,8.47,4.32,4.88.57,9.81.81,14.71,1.19ZM398.38,1450.78c.61-.03,1.22-.09,1.84-.09,5.84-.08,11.45-.87,16.66-3.88,4.14-2.39,4.6-5.5.91-8.68-.58-.5-1.16-1.2-1.84-1.34-5.31-1.14-10.21-4.01-16.05-3.03-4.97.84-10.08,1.11-15.13,1.18-3.07.04-5.62.77-8.13,2.51-4.89,3.4-4.75,6.8.69,9.51,6.63,3.31,13.79,3.95,21.06,3.82ZM665.63,1545.75c-.01.11-.03.22-.04.33-1.54,0-3.1-.17-4.61.04-2.72.37-5.58.55-8.07,1.57-2.78,1.14-5.89,2.79-5.81,6.46.08,3.86,3.25,5.5,6.34,6.52,11.27,3.73,22.61,4.14,33.88-.06,5.1-1.9,6.32-6.91,2.46-10.55-1.14-1.08-2.92-1.82-4.5-2.04-6.53-.9-13.09-1.53-19.64-2.26ZM598.88,1564.98c1.84.08,3.69.21,5.53.24,5.77.08,11.29-1.17,16.66-3.15,2.44-.9,3.58-2.76,3.56-5.36-.01-2.55-1.49-3.94-3.7-4.7-1.45-.5-2.91-1.08-4.41-1.27-5.47-.68-10.98-1.08-16.44-1.85-6.09-.85-11.78,1.25-17.66,1.97-.3.04-.62.14-.87.29-2.23,1.41-4.53,2.83-4.51,5.88.03,2.8,2.33,3.63,4.35,4.81,5.46,3.18,11.47,3.11,17.48,3.14ZM439.97,1489.23c5.54,1.1,11.51-1.37,17.59-2.8,1.54-.36,3.03-1.54,4.2-2.69,2.15-2.12,2.01-4.33-.23-6.39-2.81-2.58-6.23-4.28-9.96-4.37-7.2-.17-14.43-.06-21.62.44-3.28.23-6.76,1.15-9.63,2.71-5.56,3.02-5.41,6.19,0,9.33,5.8,3.36,12.18,3.95,19.64,3.77ZM330.89,1548.41c-.03.21-.06.43-.09.64-2.15,0-4.33-.2-6.46.04-4.91.55-9.69,1.62-13.92,4.37-3.79,2.47-3.83,5.9.03,8.37,1.26.81,2.8,1.23,4.27,1.67,9.66,2.9,19.42,2.67,29.17.59,2.97-.63,5.93-1.65,8.64-3.01,2.9-1.45,3.05-3.44,1.15-6.04-1.63-2.22-3.81-3.7-6.44-4.17-5.42-.96-10.89-1.66-16.33-2.46ZM646.74,1487.99c3.18-.43,5.77-.67,8.33-1.15,2.72-.51,5.49-.99,8.06-1.94,1.8-.66,3.65-1.8,4.9-3.23,2.5-2.87,1.9-5.14-1.33-7.2-5.88-3.74-12.54-4.12-19.15-4.07-4.58.03-9.18.84-13.72,1.64-3.46.61-6.96,1.53-9.53,4.24-1.06,1.12-2.13,2.42-1.11,4.11,1.19,1.99,2.4,4.06,4.96,4.51,6.35,1.1,12.72,2.13,18.59,3.11ZM347.93,1512.05c-3.02.65-7.53,1.49-11.97,2.64-3.92,1.01-6.79,3.83-6.75,6.14.06,2.8,2.57,5.22,7.21,6.08,4.5.83,9.13,1,13.67,1.67,5.91.88,11.67.2,17.34-1.35,1.9-.52,3.78-1.4,5.43-2.49,3.34-2.2,3.57-5.64.33-7.97-1.93-1.39-4.35-2.49-6.68-2.84-5.61-.85-11.3-1.18-18.58-1.88ZM330.42,1450.24c.01-.2.03-.39.04-.59,1.53,0,3.07-.07,4.6.01,4.82.26,9.03-1.66,13.08-3.82,3.74-1.99,3.79-6.16.27-8.54-1.26-.85-2.67-1.65-4.12-1.99-2.97-.69-6.02-1.03-9.03-1.56-7.06-1.26-14.07-.44-21.06.57-3.01.44-5.42,2.06-7.32,4.43-2.01,2.51-1.88,4.22.66,6.28,2.15,1.75,4.45,3.26,7.33,3.56,5.18.53,10.36,1.09,15.54,1.64ZM761.25,1525.78c4.37-.35,9.39-.67,14.25-2.5,2.93-1.1,5.7-2.4,5.79-5.77.08-3.29-2.9-4.34-5.47-5.51-4.89-2.23-10.12-2.63-15.34-2.69-7.75-.1-15.34.95-22.54,4.1-1.95.86-2.83,2.19-2.96,4.24-.14,2.21.99,3.41,2.92,4.17,6.25,2.46,12.4,5.28,19.43,3.98,1.04-.19,2.15-.03,3.93-.03ZM280,1512.03c-5.42.92-10.87,1.71-16.27,2.8-2.83.57-5.28,1.99-5.44,5.39-.13,2.74,1.77,5.01,5.2,6.31.85.32,1.79.44,2.69.6,5.4.99,10.77,1.69,16.35,1.72,5.36.03,10.25-1.6,15.36-2.38.84-.13,1.62-.86,2.34-1.42,1.93-1.5,4.49-2.92,4.04-5.71-.48-2.98-3.32-3.87-5.93-4.34-6.02-1.08-12.08-1.97-18.34-2.97ZM733.83,1448.82c5.31-.16,10.12-1.82,15-3.31,3.03-.93,3.94-3.22,4.57-5.81.66-2.74-1.39-3.85-3.29-4.9-1.19-.66-2.48-1.34-3.79-1.53-3.79-.56-7.61-.96-11.43-1.29-7.72-.66-15.32.03-22.73,2.37-2.03.64-3.65,1.58-3.72,4.08-.07,2.57-.09,4.99,2.94,6.05,1.3.46,2.5,1.35,3.82,1.57,6.2,1.02,12.43,1.87,18.65,2.78ZM377.43,1473.69c-6.23-.46-12.11.78-17.79,2.77-5.01,1.75-5.69,7.32-1.41,10.46,1.31.96,2.98,1.54,4.57,1.95,2.67.68,5.43,1,8.12,1.62,8.62,2,16.77-.12,24.8-2.9,2.99-1.04,3.92-3.16,3.47-6.2-.37-2.46-1.91-3.86-4.2-4.32-5.84-1.19-11.71-2.26-17.56-3.38ZM733.85,1547.79c-3.78.6-8.96,1.28-14.08,2.29-2.95.58-5.06,2.98-5.03,5.31.03,2.88,1.56,4.97,4.07,6.25,1.08.56,2.32.84,3.51,1.15,4.93,1.28,9.86,1.46,15,1.44,5.8-.02,11.32-.42,16.7-2.43,1.41-.53,2.81-1.31,3.93-2.3,2.58-2.28,2.33-5.64-.7-7.25-2.55-1.36-5.34-2.55-8.16-3.03-4.54-.77-9.18-.9-15.24-1.42ZM469.82,1549.19c-1.39,0-2.8-.16-4.16.03-6.09.84-12.22,1.52-17.98,3.97-2.79,1.19-3.93,3.15-3.95,6.12-.02,2.86,1.93,3.78,4.04,4.29,4.03.98,8.1,1.89,12.2,2.43,8.15,1.09,15.98-.26,23.37-3.91,2.18-1.08,3.74-2.48,3.6-5.33-.14-2.89-1.48-4.56-4.03-5.55-4.22-1.64-8.57-2.44-13.1-2.05ZM779.9,1486.26c3.68-.22,7.41-.13,11.03-.73,4.2-.71,8.6-1.2,11.94-4.44,3.12-3.03,2.75-6.27-1.22-8.04-2.08-.93-4.39-1.49-6.65-1.86-10.75-1.74-21.46-1.66-32.11.91-2.18.53-3.68,1.47-4.07,3.78-.39,2.3.95,5.52,3.21,6.09,5.93,1.5,11.39,5.05,17.87,4.3ZM309.39,1490.12c4.48-.94,9.46-1.85,14.36-3.08,1.54-.39,3.13-1.39,4.22-2.55,2.35-2.5,2.23-4.67-.57-6.59-1.97-1.35-4.35-2.42-6.69-2.84-6.49-1.17-13.04-2.23-19.64-.53-1.01.26-2.17.22-3.22.06-4.35-.67-8.16,1.01-11.98,2.62-2.22.93-2.82,2.76-2.28,4.94.58,2.33,1.84,3.93,4.31,4.93,6.78,2.75,13.95,1.88,21.49,3.04ZM128.63,996.38c-.17-.27-.34-.53-.51-.8-3.24,1.09-6.43,2.2-9.57,3.74-9.11,4.46-18.27,8.83-27.49,13.04-6.85,3.13-13.96,5.69-20.67,9.08-2.87,1.45-5.35,4.08-7.36,6.67-1.43,1.84-2.34,4.68-.36,6.86,1.93,2.11,4.63,1.55,6.89.53,2.78-1.25,5.44-2.82,8.02-4.47,3.49-2.24,6.79-4.77,10.27-7.02,4.12-2.66,8.37-5.14,12.54-7.73,5.48-3.41,10.97-6.8,16.38-10.31,3.47-2.26,6.84-4.68,10.17-7.15.75-.56,1.13-1.61,1.69-2.44ZM261.46,1206.21c.63,2.62,2.12,3.4,3.88,3.54,4.59.36,9.2.8,13.8.81,7.08.02,14.15-.37,21.23-.44,4.48-.04,4.78.29,5.79,4.78.6,2.7,1.78,4.94,4.36,6.17,2.44,1.17,4.81.56,6.11-1.47,4.24-6.6.08-15.78-7.65-16.82-1.22-.16-2.46-.16-3.69-.13-8.47.21-16.94.39-25.4.72-4.76.18-9.51.52-14.24,1.05-1.47.17-2.85,1.19-4.19,1.79ZM752.48,1202.64c0,.25,0,.51,0,.76-3.23,0-6.48-.17-9.69.05-2.9.2-5.79.7-8.62,1.36-.82.19-1.96,1.37-1.97,2.1-.01.79,1.09,1.64,1.81,2.36.29.29.84.4,1.29.43,4.9.31,9.8.8,14.7.83,7.07.04,14.14-.24,21.2-.44,2.58-.07,4.39.65,5.33,3.36.53,1.54,1.61,3,2.75,4.2,1.31,1.38,3.1,2.12,5.05,1.33,2.06-.84,3-2.5,3.03-4.73.14-8.07-3.21-11.55-11.36-11.59-7.84-.04-15.68,0-23.52,0ZM64.18,1081.4c-.14-.04-.27-.09-.41-.13,0-.92.07-1.85-.01-2.77-.21-2.16-.34-4.66-2.9-5.2-2.76-.57-3.56,1.94-4.36,3.9-1.87,4.56-4.01,8.91-6.95,12.94-2.43,3.32-4.22,7.12-6.25,10.73-.94,1.68-1.52,3.48-.12,5.17,1.45,1.75,3.53,1.95,5.51,1.34,2.82-.87,5.57-2.19,7.01-4.9,2.36-4.45,4.59-8.99,6.57-13.62,1-2.34,1.31-4.97,1.93-7.46ZM119.7,890.35c-1.94-2.26-4.55-2.53-7.38-2.38-2.28.12-4.56.03-6.84.09-3.05.08-6.11.11-9.15.4-.61.06-1.38,1.15-1.56,1.89-.11.42.71,1.41,1.29,1.61,1.58.55,3.24,1.1,4.89,1.13,5.06.09,10.12,0,15.17-.14,1.53-.04,3.07-.41,3.58-2.59ZM965.36,887.92c.96.5,1.9,1.37,2.89,1.44,6.43.42,12.88.73,19.32.94,1.83.06,3.68-.34,4.76-2.89-7.33-3.59-15.1-1.15-22.5-1.96-1.6-.17-3.45-.14-4.47,2.46ZM799.59,1209.87c2.03-.05,3.82-.09,4.34-2.16.35-1.39-1.65-2.98-3.84-3.11-.73-.04-1.62-.01-2.19.36-.79.52-1.88,1.39-1.87,2.11,0,.83.93,1.82,1.69,2.43.51.41,1.44.3,1.87.37ZM325.31,1206.47c.9,3.39,3.16,3.71,5.52,3.28,1-.18,2.36-1.09,2.63-1.96.48-1.55-.87-2.37-2.26-2.86-2.27-.8-4.11-.15-5.88,1.54Z"/>
  <path class="cls-1" d="M534.56,1432.38c5.43.89,10.9,1.62,16.28,2.75,1.85.39,3.72,1.51,5.18,2.76,3.12,2.66,2.79,6.07-.59,8.47-.74.53-1.58,1.01-2.45,1.26-8.15,2.31-16.34,4.4-24.9,2.29-4.16-1.03-8.37-1.88-12.43-3.19-3.15-1.01-4.39-3.12-4.23-5.83.18-2.91,2.13-4.19,4.59-5.13,5.95-2.27,12.02-3.7,18.55-3.39Z"/>
  <path class="cls-1" d="M598.16,1450.03c-4.66-.77-9.99-1.57-15.29-2.56-2.62-.49-4.91-1.69-6.7-3.83-2.53-3.03-2.38-5.7,1.13-7.58,2.38-1.27,5.17-2.08,7.86-2.43,5.02-.66,10.12-1.23,15.16-1.1,4.73.12,9.44,1.09,14.13,1.92,1.29.23,2.58,1.09,3.6,1.97,3.65,3.15,3.55,6.22-.2,9.23-2.59,2.07-5.39,3.45-8.9,3.19-1.64-.12-3.33.48-5.01.68-1.68.2-3.37.3-5.77.5Z"/>
  <path d="M128.63,996.38c-.55.83-.93,1.88-1.69,2.44-3.33,2.47-6.7,4.89-10.17,7.15-5.41,3.52-10.91,6.9-16.38,10.31-4.17,2.6-8.41,5.07-12.54,7.73-3.48,2.25-6.78,4.78-10.27,7.02-2.57,1.65-5.23,3.22-8.02,4.47-2.27,1.02-4.96,1.58-6.89-.53-1.99-2.17-1.07-5.02.36-6.86,2.01-2.59,4.49-5.23,7.36-6.67,6.71-3.39,13.83-5.95,20.67-9.08,9.22-4.22,18.38-8.58,27.49-13.04,3.14-1.54,6.33-2.65,9.57-3.74.17.27.34.53.51.8Z"/>
  <path d="M64.18,1081.4c-.62,2.5-.94,5.12-1.93,7.46-1.98,4.63-4.2,9.17-6.57,13.62-1.44,2.71-4.19,4.03-7.01,4.9-1.98.61-4.05.42-5.51-1.34-1.4-1.69-.82-3.5.12-5.17,2.03-3.61,3.82-7.4,6.25-10.73,2.94-4.03,5.08-8.38,6.95-12.94.8-1.95,1.6-4.47,4.36-3.9,2.56.53,2.7,3.04,2.9,5.2.09.91.01,1.84.01,2.77.14.04.27.09.41.13Z"/>
  <path d="M119.7,890.35c-.52,2.18-2.05,2.55-3.58,2.59-5.06.13-10.12.24-15.17.14-1.64-.03-3.31-.58-4.89-1.13-.58-.2-1.4-1.19-1.29-1.61.18-.74.95-1.83,1.56-1.89,3.03-.29,6.09-.32,9.15-.4,2.28-.06,4.57.03,6.84-.09,2.83-.15,5.44.11,7.38,2.38Z"/>
  <path d="M965.36,887.92c1.03-2.6,2.87-2.64,4.47-2.46,7.41.8,15.17-1.63,22.5,1.96-1.07,2.55-2.92,2.94-4.76,2.89-6.45-.21-12.89-.52-19.32-.94-.99-.07-1.93-.94-2.89-1.44Z"/>
  <path d="M799.59,1209.87c-.43-.07-1.36.04-1.87-.37-.77-.62-1.69-1.6-1.69-2.43,0-.71,1.08-1.59,1.87-2.11.57-.37,1.46-.4,2.19-.36,2.19.13,4.19,1.71,3.84,3.11-.52,2.08-2.31,2.11-4.34,2.16Z"/>
  <path d="M325.31,1206.47c1.77-1.69,3.61-2.34,5.88-1.54,1.4.49,2.74,1.32,2.26,2.86-.27.87-1.63,1.77-2.63,1.96-2.35.43-4.61.12-5.52-3.28Z"/>
</svg>